<?xml version="1.0" standalone="no"?>
<!DOCTYPE svg PUBLIC "-//W3C//DTD SVG 20010904//EN"
 "http://www.w3.org/TR/2001/REC-SVG-20010904/DTD/svg10.dtd">
<svg version="1.0" xmlns="http://www.w3.org/2000/svg"
 width="600.000000pt" height="256.000000pt" viewBox="0 0 600.000000 256.000000"
 preserveAspectRatio="xMidYMid meet">
<g transform="translate(0.000000,256.000000) scale(0.100000,-0.100000)"
fill="#000000" stroke="none">
<path d="M3765 2216 c-65 -20 -328 -182 -474 -293 -33 -25 -54 -33 -85 -33
-70 0 -485 -106 -626 -159 -31 -12 -50 -15 -50 -8 0 6 -11 0 -25 -13 -14 -13
-25 -19 -25 -14 0 6 17 26 37 45 20 18 31 26 24 16 -8 -9 -11 -20 -8 -23 5 -6
57 65 57 78 0 5 -9 8 -21 8 -12 0 -53 -31 -101 -79 -55 -54 -96 -85 -127 -97
-72 -27 -193 -95 -221 -125 -16 -16 -44 -30 -75 -37 -56 -12 -60 -11 -47 15 5
10 12 34 16 55 6 31 4 36 -11 34 -11 -1 -30 -27 -50 -66 -27 -56 -37 -66 -65
-72 -18 -4 -34 -2 -36 3 -6 15 -52 10 -52 -6 0 -8 -15 -22 -32 -30 -32 -15
-32 -15 -5 -11 24 3 27 1 21 -18 -20 -66 -68 -178 -84 -198 -19 -22 -19 -22 0
34 28 81 30 123 7 121 -15 -1 -17 4 -12 24 19 76 19 85 -1 81 -27 -5 -58 -67
-104 -208 -39 -118 -80 -205 -121 -259 l-19 -24 0 66 c0 205 139 615 307 907
80 140 113 206 106 214 -4 3 -16 6 -28 6 -16 0 -37 -22 -78 -77 -128 -179
-206 -319 -343 -616 -36 -78 -70 -146 -74 -151 -25 -26 75 262 198 569 44 110
84 217 87 237 7 35 5 38 -21 44 -24 6 -33 2 -62 -32 -77 -89 -218 -345 -314
-574 -25 -58 -82 -205 -128 -327 -46 -123 -85 -221 -86 -220 -2 2 12 59 32
127 19 69 57 217 85 330 28 113 82 298 120 412 38 114 69 212 69 217 0 6 -11
11 -25 11 -21 0 -30 -11 -58 -72 -121 -259 -212 -429 -253 -474 l-45 -49 6 40
c5 32 40 130 72 203 3 8 -5 12 -25 12 -28 0 -32 -5 -60 -72 -38 -91 -54 -151
-46 -171 7 -20 50 -30 73 -17 44 23 110 130 186 300 26 58 50 109 55 113 4 5
-12 -49 -36 -120 -47 -140 -220 -813 -226 -878 -3 -37 -1 -40 21 -40 28 0 18
-21 182 405 137 358 248 590 359 755 65 96 85 112 60 48 -90 -224 -120 -301
-181 -462 -73 -192 -99 -281 -99 -343 0 -35 2 -38 29 -38 22 0 32 6 37 22 11
36 58 137 169 363 98 199 239 435 252 421 3 -3 12 2 20 12 13 15 13 15 3 -6
-6 -13 -16 -20 -22 -16 -8 5 -9 1 -5 -10 4 -9 3 -15 -2 -11 -14 8 -132 -202
-194 -345 -133 -307 -210 -630 -167 -710 8 -15 2 -21 -48 -41 -138 -55 -385
-170 -621 -289 -266 -135 -311 -149 -73 -23 164 87 160 97 -6 14 -115 -58
-269 -158 -258 -168 11 -11 93 26 396 177 356 178 495 241 762 346 319 125
386 146 423 133 l32 -12 -58 -111 c-63 -122 -92 -208 -87 -258 4 -43 40 -64
94 -54 88 17 325 305 404 491 29 68 39 83 70 97 49 24 96 32 104 19 4 -6 20
-11 37 -11 16 0 29 -2 29 -5 0 -3 -19 -29 -43 -58 -64 -78 -135 -198 -173
-290 -39 -96 -47 -204 -18 -246 25 -35 91 -61 157 -61 61 0 194 43 308 100
182 92 549 390 669 544 19 24 46 47 60 51 14 3 52 34 84 68 48 51 54 55 33 22
-28 -42 -24 -59 14 -53 16 2 32 21 58 68 l35 65 -31 -32 c-35 -37 -49 -43 -33
-13 6 11 7 20 4 20 -4 0 8 14 27 31 19 17 33 35 32 40 -2 4 6 13 17 19 11 6
20 7 20 3 0 -4 8 2 18 14 18 23 84 38 435 98 161 27 444 96 602 146 221 69
365 100 365 79 0 -25 -231 -179 -400 -268 -252 -132 -401 -179 -533 -168 -74
7 -127 28 -127 51 0 8 5 26 12 40 10 21 9 28 -2 35 -21 13 -44 -4 -80 -60 -18
-28 -35 -48 -38 -46 -2 3 3 17 12 30 21 33 20 36 -8 36 -14 0 -32 -10 -40 -22
-22 -31 -20 -45 2 -25 18 16 19 16 17 -3 -2 -30 -23 -48 -31 -27 -3 9 -14 17
-23 17 -9 0 -12 3 -6 8 13 8 55 67 55 76 0 3 -7 6 -15 6 -37 0 -151 -134 -126
-149 9 -6 10 -11 2 -15 -6 -4 -14 0 -17 8 -11 30 6 66 56 118 28 29 50 53 50
55 0 11 -33 -2 -67 -26 -48 -35 -96 -95 -66 -84 15 6 16 4 6 -9 -7 -8 -9 -19
-5 -23 4 -5 -1 -5 -10 -2 -9 3 -18 2 -20 -3 -2 -5 -15 -11 -30 -14 -20 -3 -25
-1 -21 10 10 26 -6 14 -22 -16 -20 -39 -20 -40 14 -40 19 0 35 8 44 20 13 18
16 19 27 5 21 -25 68 -18 111 16 21 17 39 26 39 20 0 -6 13 -11 29 -11 20 0
38 10 59 34 24 28 33 32 41 22 20 -24 130 -48 215 -47 105 0 203 26 347 91
267 120 589 330 565 369 -17 27 -193 -4 -365 -64 -132 -45 -491 -133 -651
-160 -85 -14 -235 -41 -332 -60 -97 -19 -185 -35 -195 -35 -12 1 10 27 67 80
l84 80 -34 0 c-20 0 -50 -4 -68 -9 -30 -9 -32 -8 -32 16 0 47 -40 101 -94 128
-27 14 -60 25 -73 25 -19 0 1 23 103 123 113 109 174 181 174 205 0 12 -31 11
-75 -2z m48 -18 c-57 -76 -90 -113 -183 -198 l-108 -99 -102 1 c-55 1 -97 4
-93 8 50 43 334 226 448 288 28 16 50 15 38 0z m-2581 -294 c-9 -16 -10 -14
-9 8 1 15 6 23 11 18 4 -4 4 -16 -2 -26z m2263 -23 c-18 -17 -289 -231 -325
-256 -24 -16 -66 -29 -128 -40 -52 -9 -96 -15 -98 -12 -5 5 157 154 268 247
l83 69 105 1 c65 0 100 -4 95 -9z m-266 -5 c-2 -2 -40 -32 -84 -67 -44 -35
-125 -107 -181 -161 -55 -54 -108 -98 -117 -98 -9 0 -81 -13 -159 -29 -79 -16
-155 -27 -169 -24 -15 3 -30 0 -33 -6 -13 -21 -35 -11 -38 17 -3 25 -6 27 -46
26 -65 -1 -35 16 55 32 44 7 136 27 204 44 68 17 163 35 212 42 48 6 87 15 87
20 0 5 -15 6 -32 3 -18 -3 -64 -10 -103 -15 -38 -6 -146 -29 -239 -51 -93 -22
-175 -38 -181 -35 -7 2 -18 -1 -24 -7 -8 -8 -14 -7 -23 2 -9 10 -9 12 -1 7 7
-4 30 14 55 44 24 27 47 50 52 50 4 0 -8 -18 -28 -40 -35 -39 -42 -50 -31 -50
3 0 29 25 58 55 48 51 60 58 157 90 245 80 638 177 609 151z m400 -24 c42 -21
70 -56 81 -105 9 -44 24 -38 -185 -72 -88 -14 -199 -34 -246 -45 -48 -11 -90
-20 -94 -20 -4 0 29 26 72 58 43 32 121 94 173 136 88 72 97 77 130 71 19 -3
50 -14 69 -23z m126 -172 c-16 -16 -30 -29 -31 -27 -9 8 10 47 25 50 33 9 34
6 6 -23z m-45 -12 c-1 -29 -82 -118 -108 -118 -11 0 -55 -7 -98 -16 -125 -25
-547 -114 -574 -121 -21 -5 37 42 190 151 38 28 123 48 395 95 205 36 195 36
195 9z m-1371 -76 c-19 -20 -34 -38 -35 -40 -2 -6 -117 -32 -122 -28 -7 8 178
115 187 109 3 -2 -11 -20 -30 -41z m650 -102 c-72 -53 -140 -95 -164 -101 -22
-6 -49 -13 -60 -16 -17 -5 96 130 138 165 11 10 141 37 191 41 10 0 -37 -40
-105 -89z m745 13 c-126 -148 -228 -241 -148 -136 20 26 52 77 72 115 37 68
52 78 126 87 5 1 -18 -29 -50 -66z m-1401 19 c-10 -10 -20 -14 -22 -9 -2 5 3
13 10 18 24 15 30 10 12 -9z m431 -74 c-75 -79 -97 -96 -141 -109 -62 -20 -62
-20 -37 74 13 51 13 62 2 66 -10 4 188 50 256 60 5 0 -31 -41 -80 -91z m791
12 c-63 -93 -76 -128 -52 -145 15 -11 10 -19 -38 -72 -190 -211 -486 -443
-676 -532 -202 -95 -294 -109 -351 -54 -26 25 -28 33 -28 102 1 65 6 89 38
166 53 128 204 355 236 355 6 0 55 25 107 54 l95 55 355 75 c195 41 357 75
361 75 4 1 -17 -35 -47 -79z m111 65 c-10 -27 -108 -176 -113 -172 -4 5 39 81
83 144 31 44 40 53 30 28z m-1402 -27 c-16 -18 -30 -34 -31 -36 -4 -8 -56 24
-53 33 2 9 65 31 99 34 9 0 3 -12 -15 -31z m164 0 c3 -25 1 -26 -55 -30 -32
-2 -60 -3 -62 -2 -7 5 94 64 104 61 5 -2 11 -15 13 -29z m1723 9 c-10 -9 -11
-8 -5 6 3 10 9 15 12 12 3 -3 0 -11 -7 -18z m-1970 -50 l43 -13 -43 -34 c-23
-19 -50 -35 -58 -35 -17 0 -95 -120 -85 -130 4 -3 0 -3 -9 0 -11 4 -15 -3 -17
-31 -2 -20 -9 -43 -17 -51 -8 -8 -15 -11 -15 -6 0 5 5 14 12 21 9 9 7 16 -7
32 -10 11 -13 20 -7 20 6 0 9 6 6 14 -5 14 21 35 41 33 6 0 27 33 47 74 32 63
35 75 21 78 -34 7 -150 -170 -139 -213 4 -17 -2 -30 -24 -51 -16 -16 -32 -26
-35 -23 -9 9 24 136 58 227 l32 84 65 16 c36 9 70 13 76 9 7 -5 31 -14 55 -21z
m369 19 c0 -30 -110 -196 -130 -196 -5 0 -10 3 -10 7 0 11 81 157 98 176 13
15 42 24 42 13z m-110 -21 c0 -20 -76 -119 -127 -165 -47 -44 -72 -59 -121
-73 -34 -9 -64 -17 -67 -17 -3 0 31 55 75 123 l79 122 53 6 c79 9 108 10 108
4z m-527 -32 c-7 -21 -87 -143 -90 -139 -2 1 5 34 15 74 17 71 20 75 69 81 8
0 10 -6 6 -16z m279 -60 c-10 -16 -36 -55 -57 -87 -31 -50 -39 -57 -47 -43 -5
10 -13 15 -19 12 -15 -10 -10 4 12 34 12 16 18 34 15 40 -5 7 -1 9 9 5 11 -5
14 -2 8 11 -5 15 -2 17 15 13 12 -4 22 -3 22 1 0 5 49 40 58 41 2 0 -5 -12
-16 -27z m356 2 c-3 -3 -9 2 -12 12 -6 14 -5 15 5 6 7 -7 10 -15 7 -18z m214
-30 c-34 -19 -65 -35 -69 -35 -17 0 45 52 71 59 61 18 60 10 -2 -24z m-251 -2
c-4 -16 -16 -30 -26 -32 -16 -3 -16 0 4 28 27 38 31 39 22 4z m-1188 2 c-3 -9
-8 -14 -10 -11 -3 3 -2 9 2 15 9 16 15 13 8 -4z m1224 -7 c2 -17 0 -19 -7 -8
-5 8 -6 18 -4 22 8 12 10 10 11 -14z m-852 -31 c-3 -12 -8 -32 -10 -43 -1 -12
-8 -31 -14 -43 -7 -12 -9 -26 -6 -32 4 -5 4 -17 1 -25 -5 -14 -8 -14 -22 1
-13 12 -19 13 -30 4 -20 -16 -28 -5 -15 19 6 11 7 23 3 27 -4 5 1 5 11 2 12
-5 17 -1 17 14 0 11 -4 17 -10 14 -14 -9 -13 -5 15 53 23 48 27 52 46 41 15
-8 19 -16 14 -32z m165 -25 c-23 -59 -27 -141 -7 -143 6 -1 18 -1 26 0 26 4 1
-17 -28 -22 -17 -4 -103 -34 -191 -67 -88 -33 -162 -60 -165 -60 -2 0 12 26
31 57 19 31 34 60 34 64 0 4 12 9 27 11 19 2 29 10 34 28 6 23 7 23 8 3 1 -12
6 -25 11 -28 22 -14 48 8 75 65 16 33 30 58 33 55 7 -6 -29 -94 -44 -106 -21
-17 -17 -29 9 -29 31 0 60 34 83 95 15 42 74 137 81 131 2 -1 -6 -26 -17 -54z
m780 33 c-25 -27 -56 -33 -63 -12 -2 6 10 17 27 24 51 19 62 16 36 -12z m-845
-25 c-2 -11 -8 -27 -13 -36 -8 -14 -9 -12 -9 10 0 14 4 29 8 32 5 3 6 10 3 16
-4 6 -2 8 4 4 6 -3 9 -15 7 -26z m563 -14 c-1 -2 -16 -6 -33 -10 l-30 -7 30
25 c24 19 31 21 33 9 2 -8 2 -16 0 -17z m-18 -100 c-56 -122 -149 -254 -258
-368 -97 -100 -147 -132 -159 -101 -16 40 16 149 82 280 55 109 71 133 95 142
16 5 57 29 92 53 50 35 174 89 186 83 1 -1 -16 -41 -38 -89z m-275 30 c-9 -13
-23 -27 -31 -30 -12 -5 -12 -1 1 24 9 17 22 30 30 30 14 0 13 -3 0 -24z m125
-6 c-38 -29 -100 -62 -100 -53 1 21 23 39 67 55 62 21 63 21 33 -2z m-217 -17
c-19 -30 -33 -43 -47 -43 -6 0 5 16 24 35 41 42 46 44 23 8z m61 -38 c-6 -16
-24 -21 -24 -7 0 11 11 22 21 22 5 0 6 -7 3 -15z m-1017 -17 c-3 -8 -6 -5 -6
6 -1 11 2 17 5 13 3 -3 4 -12 1 -19z m-20 -130 c-3 -7 -5 -2 -5 12 0 14 2 19
5 13 2 -7 2 -19 0 -25z"/>
<path d="M3245 1791 c-3 -5 -2 -12 3 -15 5 -3 9 1 9 9 0 17 -3 19 -12 6z"/>
<path d="M3133 1655 c0 -8 4 -12 9 -9 5 3 6 10 3 15 -9 13 -12 11 -12 -6z"/>
<path d="M2976 1732 c-3 -5 1 -9 9 -9 8 0 12 4 9 9 -3 4 -7 8 -9 8 -2 0 -6 -4
-9 -8z"/>
<path d="M3416 1713 c-6 -14 -5 -15 5 -6 7 7 10 15 7 18 -3 3 -9 -2 -12 -12z"/>
<path d="M3443 1335 c0 -8 4 -12 9 -9 5 3 6 10 3 15 -9 13 -12 11 -12 -6z"/>
<path d="M2046 982 c-3 -5 1 -9 9 -9 8 0 12 4 9 9 -3 4 -7 8 -9 8 -2 0 -6 -4
-9 -8z"/>
<path d="M1360 1951 c0 -6 4 -13 10 -16 6 -3 7 1 4 9 -7 18 -14 21 -14 7z"/>
<path d="M5067 1799 c7 -7 15 -10 18 -7 3 3 -2 9 -12 12 -14 6 -15 5 -6 -5z"/>
<path d="M2115 1591 c-3 -5 -2 -12 3 -15 5 -3 9 1 9 9 0 17 -3 19 -12 6z"/>
<path d="M3835 1540 c-4 -6 -10 -8 -15 -5 -5 3 -11 1 -15 -4 -3 -6 3 -8 14 -6
11 2 22 -3 25 -11 8 -21 21 -17 34 11 11 23 10 25 -13 25 -13 0 -27 -5 -30
-10z"/>
<path d="M1000 1466 c0 -2 7 -7 16 -10 8 -3 12 -2 9 4 -6 10 -25 14 -25 6z"/>
<path d="M1183 1285 c0 -8 4 -12 9 -9 5 3 6 10 3 15 -9 13 -12 11 -12 -6z"/>
</g>
</svg>
